<?xml version="1.0" encoding="utf-8"?>
<!-- Generator: Adobe Illustrator 19.0.0, SVG Export Plug-In . SVG Version: 6.00 Build 0)  -->
<svg version="1.1" id="Layer_1" xmlns="http://www.w3.org/2000/svg" xmlns:xlink="http://www.w3.org/1999/xlink" x="0px" y="0px"
	 viewBox="0 0 213.8 122.2" style="enable-background:new 0 0 213.8 122.2;" xml:space="preserve">
<style type="text/css">
	.st0{fill:#161616;}
</style>
<path id="XMLID_111_" class="st0" d="M136.1,55.8c0.7,6.8-3.2,12.5-9.3,14.7c-1.4,0.5-3.3,0.7-3.1,2.6c0.2,2.5-1.3,5.3,1.7,7.3
	c3,2,3.6,5.4,2.1,8.4c-1.4,2.7-4.7,4.1-7.7,3.2c-2.8-0.8-5.2-3.7-4.6-6.6c0.4-1.8,1.4-3.9,2.8-5c3-2.2,1.5-5,1.6-7.6
	c0-0.8-1.8-1.9-2.9-2.3c-7.7-2.9-11.8-11-9.1-18.8c0.8-2.3,0.2-3.5-1.7-4.7c-1.8-1.2-3.1-1.9-5.2-0.2C94.1,52,85,50.8,79.7,44.6
	c-0.7-0.9-2.4-1.9-3.1-1.6c-2,0.7-4.8,0.5-5.3,3.7c-0.4,2.8-2.2,4.6-5,5.3c-2.4,0.6-4.4-0.1-6.1-1.8c-2.3-2.4-2.5-5.7-0.6-8.4
	c1.7-2.4,5.4-3.6,8-1.9c2.9,1.9,5.3,0.4,7.7-0.7c0.7-0.3,1.2-1.9,1.2-2.9c-0.3-7.4,3.8-13.3,10.8-15.6c1.1-0.4,2.8-1.4,2.8-2.1
	c0.1-2.2,1.4-4.7-1.2-6.6C86,10,85.2,7.4,86.1,4.6C87,2,88.8,0.4,91.5,0.1c3-0.4,5.9,1.2,7,4.1c1.1,2.7,0.2,5.7-2.2,7.6
	c-2,1.6-3.2,5.2-2.2,7.4c0.3,0.7,1.2,1.3,2,1.6c8.3,3.6,11.7,10.2,9.4,18.9c-0.7,2.8,1.3,3.4,2.8,4.6c1.4,1.1,2.6,1.4,4.2,0.2
	c7.1-5.1,15.4-3.8,21.1,3c0.6,0.7,2.1,1.3,2.9,1.1c2.8-0.8,5.8-1.2,7-5c1.1-3.3,5.7-4.3,8.7-2.6c3.3,1.8,4.4,5.8,2.5,9.1
	c-1.8,3.1-6.1,4.5-8.8,2.3c-3.1-2.5-5.7-1-8.2,0.2C136.9,52.9,136.7,54.7,136.1,55.8z"/>
<path id="XMLID_108_" class="st0" d="M159,121.2c-1.9,0-3.8-0.1-5.7,0c-1.7,0.1-2.5-0.6-2.5-2.3c0-4.7,0-9.3,0-14
	c0-1.7,0.7-2.4,2.4-2.4c3.2,0.1,6.5,0,9.7,0c4.1,0,5.9,2.4,4.6,6.4c-0.4,1.4-0.6,2.4,0.6,3.7c1.6,1.8,1.8,4.1,0.7,6.3
	c-1,2.1-2.9,2.2-4.9,2.2C162.4,121.2,160.7,121.2,159,121.2z M154.3,106.2c0,4,0,7.7,0,11.4c4,0,7.8,0,11.5,0
	c0.2-3.1-0.6-3.9-3.4-3.9c-2.2,0-4.4,0-6.7,0c0-1.3,0-2.3,0-3.5c2,0,3.8,0,5.6,0c2.5-0.1,3.4-1.2,2.8-4
	C160.9,106.2,157.7,106.2,154.3,106.2z"/>
<path id="XMLID_105_" class="st0" d="M18.9,121.1c-1.3,0-2.2,0-3.3,0c0-1.4,0-2.8,0-4.3c-4,0-7.8,0-11.9,0c0,1.3,0,2.7,0,4.2
	c-1.2,0-2.2,0-3.7,0c0.2-4,0.1-8.1,0.7-12c0.5-3.5,4-6.1,7.5-6.3c2.8-0.2,5.7-0.2,8.5,0c0.8,0.1,2.1,1.3,2.1,2
	C19,110.1,18.9,115.5,18.9,121.1z M15.3,106.1c-2.3,0-4.6-0.2-6.8,0c-3.6,0.4-5.5,3.2-4.6,7c1.9,0,3.8,0,5.7,0c1.9,0,3.8,0,5.7,0
	C15.3,110.7,15.3,108.5,15.3,106.1z"/>
<path id="XMLID_104_" class="st0" d="M133.7,115.1c0-1.1,0-2.1,0-3.4c1.8,0,3.6,0,5.4,0c4.6,0,5.2-0.6,4.9-5.4c-3.7,0-7.5,0-11.6,0
	c0,4.9,0,9.7,0,14.8c-1.2,0-2.2,0-3.4,0c0-5.6-0.1-11.3,0.1-16.9c0-0.5,1.2-1.4,1.8-1.5c4.3-0.1,8.7-0.2,13,0.1
	c1.2,0.1,2.8,1.4,3.2,2.5c1.2,3.1,0.7,8.4-4.2,9.7c-0.3,0.1-0.6,0.2-1.2,0.5c2.1,1.9,4.1,3.6,6.4,5.6c-2.9,0.4-5.1,0.4-7.3-1.7
	C138.8,117.5,137.1,114.8,133.7,115.1z"/>
<path id="XMLID_101_" class="st0" d="M125,121.1c-1.2,0-2.2,0-3.4,0c0-1.4,0-2.7,0-4.2c-4,0-7.8,0-11.8,0c-0.1,1.4-0.1,2.7-0.2,4.2
	c-1,0-1.9,0-2.9,0c0-3.9-0.4-7.9,0.1-11.8c0.4-3.6,4-6.3,7.6-6.5c2.8-0.2,5.7-0.2,8.5,0c0.8,0.1,2,1.2,2.1,1.8
	C125,110,125,115.5,125,121.1z M121.4,106.2c-9.1-0.8-12.1,1.1-11.4,7c1.9,0,3.8,0,5.6,0c1.9,0,3.8,0,5.8,0
	C121.4,110.7,121.4,108.5,121.4,106.2z"/>
<path id="XMLID_98_" class="st0" d="M181.5,122.2c-2.4-0.9-5.1-1.4-7.2-2.7c-2.7-1.8-3.6-8.1-2.1-12.1c1.2-3.3,4.1-5,8.3-5.1
	c0.2,0,0.5,0,0.7,0c9.5-0.6,11.3,4.9,10.6,12.1c-0.4,4.1-3,6.6-7.1,7c-1,0.1-2,0-3,0C181.7,121.7,181.6,121.9,181.5,122.2z
	 M182,105.7c-0.8,0-1.7,0-2.5,0c-2.5,0.1-4.1,1.5-4.4,3.9c-0.2,1.5-0.2,3,0,4.5c0.2,2.4,1.7,3.9,4.1,3.9c3.1,0,6.8,1.4,8.7-2.3
	C190.8,110.4,187.9,105.7,182,105.7z"/>
<path id="XMLID_95_" class="st0" d="M63.4,111.8c0-6.9,2.7-9.6,9.7-9.5c1.8,0,3.7,0,5.4,0.6c4.1,1.3,5.7,5.4,5,11.8
	c-0.4,3.7-3,6.3-6.8,6.8c-1.1,0.1-2.3,0.1-3.5,0.2C67.1,122,62.8,118.9,63.4,111.8z M80,112c0-5.1-1.1-6.3-6-6.3
	c-6.2,0-7.3,0.9-7.3,6.1c0,5.2,1.2,6.3,6.6,6.3C78.9,118.1,80,117.1,80,112z"/>
<path id="XMLID_94_" class="st0" d="M198.5,108.1c0,4.8,0,8.8,0,13c-1.1,0-2.1,0-3.4,0c0-2.8,0-5.6,0-8.4c0-2.5-0.1-5,0.1-7.5
	c0.1-0.9,0.8-1.8,1.2-2.8c0.8,0.4,1.9,0.6,2.5,1.2c3.2,3.2,6.3,6.4,9.4,9.7c0.6,0.6,1.1,1.2,2.2,2.4c0-4.8,0-8.8,0-13
	c1.3,0,2.3,0,3.5,0c0,5.7,0,11.2-0.1,16.8c0,0.6-0.7,1.5-1.2,1.6c-0.7,0.1-1.6-0.3-2.1-0.7c-2.9-2.9-5.8-6-8.7-9
	C200.9,110.5,200,109.6,198.5,108.1z"/>
<path id="XMLID_93_" class="st0" d="M22.6,102.7c1.1,0,2,0,3.2,0c0,2.7,0,5.4,0,8c0.1,5.2,1.9,7,7.1,7c1.4,0,2.8,0,4.6,0
	c0-5,0-10,0-15c1.3,0,2.3,0,3.5,0c0,5.6,0,11.2-0.1,16.7c0,0.6-1,1.6-1.5,1.6c-3.6,0-7.4,0.2-10.9-0.5c-3.7-0.7-5.9-4.1-6.1-7.9
	c-0.1-2.9,0-5.8,0-8.7C22.4,103.6,22.5,103.3,22.6,102.7z"/>
<path id="XMLID_92_" class="st0" d="M103.4,102.7c0,1.2,0,2.1,0,3.3c-3.7,0-7.2,0.1-10.8,0c-1.9,0-2.8,0.5-2.6,2.6
	c0.2,2.1,0.1,4.3,0,6.5c-0.1,2,0.5,2.8,2.6,2.7c3.5-0.1,7.1,0,10.8,0c0,1.2,0,2.2,0,3.4c-4.3,0-8.6,0.1-12.9-0.1
	c-2.3-0.1-3.8-2-3.9-4.4c-0.1-3.2-0.1-6.3,0-9.5c0.1-2.3,1.3-4.3,3.6-4.4C94.5,102.5,98.9,102.7,103.4,102.7z"/>
<path id="XMLID_91_" class="st0" d="M54.4,121.1c-1.3,0-2.2,0-3.4,0c0-4.9,0-9.8,0-15c-2.6,0-4.9,0-7.4,0c0-1.3,0-2.3,0-3.3
	c6,0,11.9,0,17.7,0c0.8,3.1,0.6,3.3-2.2,3.3c-1.5,0-3,0-4.7,0C54.4,111.2,54.4,116,54.4,121.1z"/>
</svg>
